<svg xmlns="http://www.w3.org/2000/svg"  viewBox="0 0 16 16" width="32px" height="32px"><polygon fill="#f78f8f" points="1.5,2.5 1.5,7.5 5.5,13.5 10.5,13.5"/><path fill="#c74343" d="M10.5,14h-5c-0.167,0-0.323-0.084-0.416-0.223l-4-6C1.029,7.695,1,7.599,1,7.5v-5 c0-0.211,0.133-0.399,0.332-0.471C1.529,1.96,1.753,2.021,1.887,2.184l9,11c0.123,0.149,0.147,0.355,0.065,0.53 C10.869,13.889,10.693,14,10.5,14z M5.768,13h3.678L2,3.9v3.448L5.768,13z"/><polygon fill="#f78f8f" points="10.5,9.5 14.5,2.5 14.5,7.5 13.5,9.5"/><path fill="#c74343" d="M13.5,10h-3c-0.179,0-0.343-0.095-0.433-0.249c-0.089-0.154-0.09-0.345-0.002-0.499l4-7 c0.113-0.196,0.351-0.288,0.563-0.235C14.848,2.075,15,2.273,15,2.5v5c0,0.077-0.019,0.154-0.053,0.224l-1,2 C13.862,9.893,13.689,10,13.5,10z M11.361,9h1.83L14,7.382V4.383L11.361,9z"/></svg>